<?xml version="1.0" standalone="no"?>
<!DOCTYPE svg PUBLIC "-//W3C//DTD SVG 20010904//EN"
 "http://www.w3.org/TR/2001/REC-SVG-20010904/DTD/svg10.dtd">
<svg version="1.0" xmlns="http://www.w3.org/2000/svg"
 width="735.000000pt" height="458.000000pt" viewBox="0 0 735.000000 458.000000"
 preserveAspectRatio="xMidYMid meet">

<g transform="translate(0.000000,458.000000) scale(0.100000,-0.100000)"
fill="#000000" stroke="none">
<path d="M2395 4135 c-139 -26 -249 -82 -352 -178 -110 -103 -176 -218 -207
-359 -15 -65 -16 -205 -14 -1343 l3 -1270 35 -90 c45 -116 93 -186 183 -272
80 -76 173 -129 287 -165 l75 -23 1270 0 c1202 0 1273 1 1335 18 248 71 439
262 501 505 18 72 19 122 19 1331 0 1385 3 1312 -64 1454 -84 181 -244 317
-446 379 l-75 23 -1240 2 c-997 1 -1254 -1 -1310 -12z m1027 -1102 c143 -51
232 -125 287 -238 54 -109 64 -231 31 -360 -25 -96 -58 -155 -125 -220 -107
-104 -255 -152 -483 -159 l-147 -4 -5 -243 -5 -244 -130 0 -130 0 -3 740 c-1
407 0 746 3 753 4 11 64 13 312 10 l308 -4 87 -31z m1208 -349 l55 -19 3 -104
c1 -58 1 -110 -2 -117 -4 -10 -15 -9 -48 6 -24 10 -78 26 -120 34 -187 39
-300 4 -300 -91 0 -53 44 -88 179 -143 126 -51 151 -64 215 -108 101 -70 145
-165 135 -289 -5 -68 -45 -160 -66 -155 -7 1 -10 -2 -6 -8 9 -15 -52 -67 -112
-95 -137 -66 -347 -73 -518 -18 -83 26 -85 30 -85 160 0 62 2 113 4 113 2 0
33 -14 68 -30 127 -59 326 -78 404 -38 45 24 73 105 43 123 -6 4 -8 14 -5 22
3 8 2 12 -3 9 -5 -3 -14 0 -20 7 -6 8 -48 31 -93 51 -46 21 -116 53 -155 72
-167 76 -243 176 -243 318 0 137 113 266 271 311 78 22 323 15 399 -11z"/>
<path d="M2980 2565 l0 -278 148 5 c135 4 153 7 210 33 109 49 156 126 153
254 -2 114 -56 192 -160 233 -46 18 -81 23 -203 26 l-148 4 0 -277z"/>
</g>
</svg>
